<mxfile host="app.diagrams.net" modified="2024-02-12T08:15:14.573Z" agent="Mozilla/5.0 (Windows NT 10.0; Win64; x64) AppleWebKit/537.36 (KHTML, like Gecko) Chrome/121.0.0.0 Safari/537.36" etag="k0pZzeG4pKUpqIVpMLH6" version="23.1.2" type="device">
  <diagram name="Page-1" id="AAed3wVcsujwBls0j5fg">
    <mxGraphModel dx="1221" dy="599" grid="1" gridSize="10" guides="1" tooltips="1" connect="1" arrows="1" fold="1" page="1" pageScale="1" pageWidth="850" pageHeight="1100" math="0" shadow="0">
      <root>
        <mxCell id="0" />
        <mxCell id="1" parent="0" />
        <mxCell id="4x9wCciTF-_-L7Danrmb-4" value="" style="endArrow=none;dashed=1;html=1;dashPattern=1 3;strokeWidth=2;rounded=0;exitX=0;exitY=0.319;exitDx=0;exitDy=0;entryX=0.996;entryY=0.314;entryDx=0;entryDy=0;entryPerimeter=0;exitPerimeter=0;" edge="1" parent="1" source="4x9wCciTF-_-L7Danrmb-1" target="4x9wCciTF-_-L7Danrmb-1">
          <mxGeometry width="50" height="50" relative="1" as="geometry">
            <mxPoint x="400" y="340" as="sourcePoint" />
            <mxPoint x="450" y="290" as="targetPoint" />
            <Array as="points" />
          </mxGeometry>
        </mxCell>
        <mxCell id="4x9wCciTF-_-L7Danrmb-1" value="INPUT MODULE&lt;br&gt;&lt;br&gt;&lt;br&gt;INTERFACES&lt;br&gt;&lt;br&gt;WEB APIs&lt;br&gt;File Readers&lt;br&gt;Database&amp;nbsp;&lt;br&gt;Connectors&lt;br&gt;&lt;br&gt;&lt;br&gt;Logging and Monitoring" style="rounded=0;whiteSpace=wrap;html=1;" vertex="1" parent="1">
          <mxGeometry x="60" y="60" width="190" height="200" as="geometry" />
        </mxCell>
        <mxCell id="4x9wCciTF-_-L7Danrmb-7" value="" style="endArrow=none;html=1;rounded=0;exitX=0;exitY=0.25;exitDx=0;exitDy=0;entryX=1;entryY=0.25;entryDx=0;entryDy=0;" edge="1" parent="1" source="4x9wCciTF-_-L7Danrmb-1" target="4x9wCciTF-_-L7Danrmb-1">
          <mxGeometry width="50" height="50" relative="1" as="geometry">
            <mxPoint x="400" y="290" as="sourcePoint" />
            <mxPoint x="450" y="240" as="targetPoint" />
          </mxGeometry>
        </mxCell>
        <mxCell id="4x9wCciTF-_-L7Danrmb-8" value="" style="endArrow=none;dashed=1;html=1;dashPattern=1 3;strokeWidth=2;rounded=0;exitX=-0.008;exitY=0.407;exitDx=0;exitDy=0;exitPerimeter=0;entryX=1.003;entryY=0.402;entryDx=0;entryDy=0;entryPerimeter=0;" edge="1" parent="1" source="4x9wCciTF-_-L7Danrmb-1" target="4x9wCciTF-_-L7Danrmb-1">
          <mxGeometry width="50" height="50" relative="1" as="geometry">
            <mxPoint x="400" y="290" as="sourcePoint" />
            <mxPoint x="450" y="240" as="targetPoint" />
          </mxGeometry>
        </mxCell>
        <mxCell id="4x9wCciTF-_-L7Danrmb-9" value="PREPROCESSING MODULE&lt;br&gt;&lt;br&gt;&lt;br&gt;RESPONSIBILITIES&lt;br&gt;&lt;br&gt;TOKENIZATION&lt;br&gt;STOPWORD REMOVAL&lt;br&gt;TEXT CLEANING&lt;br&gt;&lt;br&gt;&lt;br&gt;Logging and Monitoring" style="rounded=0;whiteSpace=wrap;html=1;" vertex="1" parent="1">
          <mxGeometry x="320" y="65" width="190" height="190" as="geometry" />
        </mxCell>
        <mxCell id="4x9wCciTF-_-L7Danrmb-10" value="" style="endArrow=none;html=1;rounded=0;exitX=0;exitY=0.25;exitDx=0;exitDy=0;entryX=1;entryY=0.25;entryDx=0;entryDy=0;" edge="1" parent="1" source="4x9wCciTF-_-L7Danrmb-9" target="4x9wCciTF-_-L7Danrmb-9">
          <mxGeometry width="50" height="50" relative="1" as="geometry">
            <mxPoint x="400" y="290" as="sourcePoint" />
            <mxPoint x="450" y="240" as="targetPoint" />
          </mxGeometry>
        </mxCell>
        <mxCell id="4x9wCciTF-_-L7Danrmb-11" value="" style="endArrow=none;html=1;rounded=0;exitX=-0.001;exitY=0.447;exitDx=0;exitDy=0;exitPerimeter=0;entryX=0.996;entryY=0.447;entryDx=0;entryDy=0;entryPerimeter=0;" edge="1" parent="1">
          <mxGeometry width="50" height="50" relative="1" as="geometry">
            <mxPoint x="319.99999999999994" y="139.99999999999997" as="sourcePoint" />
            <mxPoint x="509.43" y="139.99999999999997" as="targetPoint" />
          </mxGeometry>
        </mxCell>
        <mxCell id="4x9wCciTF-_-L7Danrmb-12" value="SUMMARIZATION MODULE&lt;br&gt;&lt;br&gt;&lt;br&gt;RESPONSIBILITIES&lt;br&gt;&lt;br&gt;EXTRACTIVE/ABSTRACTIVE&lt;br&gt;MODEL TRAINING&lt;br&gt;EVALUATION&lt;br&gt;&lt;br&gt;Logging and Monitoring" style="rounded=0;whiteSpace=wrap;html=1;" vertex="1" parent="1">
          <mxGeometry x="620" y="65" width="190" height="190" as="geometry" />
        </mxCell>
        <mxCell id="4x9wCciTF-_-L7Danrmb-13" value="" style="endArrow=none;html=1;rounded=0;exitX=1;exitY=0.25;exitDx=0;exitDy=0;entryX=0;entryY=0.25;entryDx=0;entryDy=0;" edge="1" parent="1" source="4x9wCciTF-_-L7Danrmb-12" target="4x9wCciTF-_-L7Danrmb-12">
          <mxGeometry width="50" height="50" relative="1" as="geometry">
            <mxPoint x="400" y="290" as="sourcePoint" />
            <mxPoint x="450" y="240" as="targetPoint" />
          </mxGeometry>
        </mxCell>
        <mxCell id="4x9wCciTF-_-L7Danrmb-14" value="" style="endArrow=none;html=1;rounded=0;entryX=-0.003;entryY=0.449;entryDx=0;entryDy=0;entryPerimeter=0;" edge="1" parent="1" target="4x9wCciTF-_-L7Danrmb-12">
          <mxGeometry width="50" height="50" relative="1" as="geometry">
            <mxPoint x="810" y="150" as="sourcePoint" />
            <mxPoint x="450" y="240" as="targetPoint" />
          </mxGeometry>
        </mxCell>
        <mxCell id="4x9wCciTF-_-L7Danrmb-17" value="POSTPROCESSING MODULE&lt;br&gt;&lt;br&gt;&lt;br&gt;RESPONSIBILITIES&lt;br&gt;&lt;br&gt;GRAMMATICAL AND SYNTACTIC CORRECTNESS&lt;br&gt;&amp;nbsp;&lt;br&gt;Logging and Monitoring" style="rounded=0;whiteSpace=wrap;html=1;" vertex="1" parent="1">
          <mxGeometry x="200" y="340" width="190" height="190" as="geometry" />
        </mxCell>
        <mxCell id="4x9wCciTF-_-L7Danrmb-18" value="" style="endArrow=none;html=1;rounded=0;exitX=1;exitY=0.25;exitDx=0;exitDy=0;entryX=0;entryY=0.25;entryDx=0;entryDy=0;" edge="1" parent="1" source="4x9wCciTF-_-L7Danrmb-17" target="4x9wCciTF-_-L7Danrmb-17">
          <mxGeometry width="50" height="50" relative="1" as="geometry">
            <mxPoint x="440" y="290" as="sourcePoint" />
            <mxPoint x="490" y="240" as="targetPoint" />
          </mxGeometry>
        </mxCell>
        <mxCell id="4x9wCciTF-_-L7Danrmb-19" value="" style="endArrow=none;html=1;rounded=0;exitX=1;exitY=0.5;exitDx=0;exitDy=0;entryX=0;entryY=0.5;entryDx=0;entryDy=0;" edge="1" parent="1" source="4x9wCciTF-_-L7Danrmb-17" target="4x9wCciTF-_-L7Danrmb-17">
          <mxGeometry width="50" height="50" relative="1" as="geometry">
            <mxPoint x="440" y="290" as="sourcePoint" />
            <mxPoint x="490" y="240" as="targetPoint" />
          </mxGeometry>
        </mxCell>
        <mxCell id="4x9wCciTF-_-L7Danrmb-20" value="OUTPUT MODULE&lt;br&gt;&lt;br&gt;&lt;br&gt;INTERFACES&lt;br&gt;&lt;br&gt;UI&lt;br&gt;File WRITER&lt;br&gt;LOGGING&amp;nbsp;&lt;br&gt;FEEDBACK&lt;br&gt;&lt;br&gt;&lt;br&gt;Logging and Monitoring" style="rounded=0;whiteSpace=wrap;html=1;" vertex="1" parent="1">
          <mxGeometry x="580" y="340" width="190" height="200" as="geometry" />
        </mxCell>
        <mxCell id="4x9wCciTF-_-L7Danrmb-21" value="" style="endArrow=none;dashed=1;html=1;dashPattern=1 3;strokeWidth=2;rounded=0;exitX=1.008;exitY=0.398;exitDx=0;exitDy=0;exitPerimeter=0;entryX=0.006;entryY=0.398;entryDx=0;entryDy=0;entryPerimeter=0;" edge="1" parent="1" source="4x9wCciTF-_-L7Danrmb-20" target="4x9wCciTF-_-L7Danrmb-20">
          <mxGeometry width="50" height="50" relative="1" as="geometry">
            <mxPoint x="440" y="290" as="sourcePoint" />
            <mxPoint x="490" y="240" as="targetPoint" />
          </mxGeometry>
        </mxCell>
        <mxCell id="4x9wCciTF-_-L7Danrmb-22" value="" style="endArrow=none;html=1;rounded=0;exitX=1;exitY=0.25;exitDx=0;exitDy=0;entryX=0;entryY=0.25;entryDx=0;entryDy=0;" edge="1" parent="1" source="4x9wCciTF-_-L7Danrmb-20" target="4x9wCciTF-_-L7Danrmb-20">
          <mxGeometry width="50" height="50" relative="1" as="geometry">
            <mxPoint x="440" y="290" as="sourcePoint" />
            <mxPoint x="490" y="240" as="targetPoint" />
          </mxGeometry>
        </mxCell>
      </root>
    </mxGraphModel>
  </diagram>
</mxfile>
